<svg id="edZfaLJVTs91" xmlns="http://www.w3.org/2000/svg" xmlns:xlink="http://www.w3.org/1999/xlink" viewBox="0 0 375 366" shape-rendering="geometricPrecision" text-rendering="geometricPrecision"><g transform="matrix(.1 0 0-.1 0 365.37016)"><path d="M922.30587,2103.30717v-698h1072.69413h1148.79864v255v405l-371.31238,443c-34,3-702.48626,547-734.48626,547l-646.94037-547-468.75376-405Z" transform="translate(-120-365.30717)" fill="#dfed02"/><path d="M1555,2908C1208,2610,94,1643,63,1613c-16-16-23-34-23-62v-41l223-2l222-3l3-232l2-233h190h190v305v304l521,486c286,267,523,485,527,485s234-215,512-477l505-477l6-96c4-52,7-176,8-275s4-197,7-218l7-37h119h120l-3,233-4,232l233,3l232,2v44v44l-162,140c-358,307-373,321-379,349-4,16-7,157-8,316l-1,287h-338-338l-194,156c-254,203-387,304-397,303-4,0-134-109-288-241Z" fill="#008f18"/><path d="M1610,1820v-120h120h120v120v120h-120-120v-120Z" fill="#008f18"/><path d="M1980,1881c0-32-3-86-6-120l-7-61h122h121v120v120h-115-115v-59Z" fill="#008f18"/><path d="M1610,1470v-120h120h120v114v113l-61,7c-34,3-88,6-120,6h-59v-120Z" fill="#008f18"/><path d="M1982,1578c-8-8-12-49-12-120v-108h120h120v120v120h-108c-71,0-112-4-120-12Z" fill="#008f18"/></g></svg>
