<svg id="efTmXg89PkV1" xmlns="http://www.w3.org/2000/svg" xmlns:xlink="http://www.w3.org/1999/xlink" viewBox="0 0 1024 1024" shape-rendering="geometricPrecision" text-rendering="geometricPrecision"><g transform="matrix(.1 0 0-.1 0 1024)"><path d="M2685,4526l-64.76636-407L8574,4163.50755c66-124,431.82081,700.77623,431.82081,748.77623c0,51-3658.82081,0-3727.82081,0h-2413L2685,4526Z" transform="translate(-540-116)" fill="#dfed02"/><path d="M5085,7608c-360-34-643-110-931-254-680-337-1161-997-1284-1760-16-97-29-334-23-405l6-59h223h224v140c0,416,126,799,371,1131c75,101,265,298,369,382c273,221,591,362,930,414c146,22,462,22,590-1c224-40,385-93,582-192c270-136,491-314,685-554c213-264,366-619,404-935c6-49,12-99,14-110s4-77,4-147l1-128h225h225v128c0,108-15,278-36,412-3,19-16,78-29,130-127,500-399,935-785,1256-384,319-792,485-1349,549-143,16-261,17-416,3Z" fill="#008f18"/><path d="M5078.12542,7485.00291c-360-34-559-94.07894-847-238.07894-680-337-1152-870.104005-1248-1650-4.999995-133-5-330-5-411v-59L3076,5130h224v140c0,416,126,799,371,1131c75,101,265,298,369,382c273,221,591,362,930,414c146,22,462,22,590-1c224-40,385-93,582-192c270-136,491-314,685-554c213-264,366-619,404-935c6-49,12-99,14-110s5-80.07603,5-150.07603L7250,5130l319.31347-3.07603v5v138.07603c0,108,0,206.92397-21.46951,343.92397-3,19-30.1754,98-43.1754,150-127,500-390.54314,885-776.54314,1206-384,319-678,451.07894-1235,515.07894-143,16-260,14-415,0Z" transform="translate(-2.84396 3.07603)" fill="#006005"/><path d="M5224,7022c-22-20-119-103-215-184-244-206-763-655-1285-1112-44-39-121-106-172-149-91-76-92-78-92-122v-45h225h225v-235-235h-838-838l-89-207c-48-115-149-352-223-528-73-176-136-326-139-332-4-10,646-13,3230-13h3234l58,143c32,78,129,315,217,527s162,391,165,397c4,10-209,13-1028,15l-1034,3-3,233-2,232h235h235v48c0,41-4,51-28,69-28,20-273,231-434,372l-86,76-1,313-1,312h-343-343l-64,53c-110,91-514,407-519,407-4,0-24-17-47-38Zm194-639c122-113,247-231,627-593c61-58,143-135,182-173l71-67l8-305l7-305h-1042-1041v300v299l247,228c136,125,353,327,483,449c255,239,314,293,318,294c1,0,64-57,140-127ZM3888,4674c60-17,60-18,27-98-12-29-20-36-33-31-83,31-162,25-162-14c0-24,27-39,121-70c76-25,117-62,126-114c18-113-66-207-200-223-57-7-171,19-210,48-17,13-17,16,8,71c15,31,27,57,28,57s29-11,62-25c73-30,115-31,146-6c34,28,17,50-57,79-91,34-127,56-152,93-20,29-23,44-20,94c9,140,127,192,316,139Zm2112,4c19-6,44-16,56-23c21-13,21-15,5-74-12-48-19-60-31-55-128,55-221,42-270-38-41-67-15-173,52-213c45-27,131-25,189,3c24,12,44,20,46,18s6-32,10-68l6-65-49-19c-34-13-74-19-129-19-67,0-89,5-137,28-138,68-195,218-139,367c53,142,219,209,391,158Zm-3542-90c22-57,54-143,73-192c30-78,34-86,43-65c5,13,45,99,89,192l80,167h53c63,0,59,13,74-215c5-82,12-194,16-247l7-98h-71c-81,0-81,0-83,98-3,142-7,142-76,0l-62-128h-45c-37,0-46,4-51,21-4,12-30,69-58,128l-50,106-18-110c-10-60-18-111-18-112-1-5-151-3-151,1c0,9,111,532,115,544c3,7,22,12,49,12h45l39-102Zm848,37c12-33,57-150,98-260c40-110,77-208,81-217c6-16-1-18-73-18-79,0-80,0-92,30s-12,30-97,30h-84l-10-30c-11-30-11-30-91-30-78,0-79,0-72,23c10,32,195,520,201,530c2,4,30,7,60,5l55-3l24-60Zm1144-5v-70h-70-70v-210-210h-75-75v210v210h-70-70v63c0,35,3,67,7,70c3,4,100,7,215,7h208v-70Zm488-2l3-68h-121-120v-45-45h95h95v-55-55h-95-95v-50-50h115h115v-60-60h-195-195v280v280l198-2l197-3l3-67Zm418,57c56-16,96-52,118-107c32-75,14-180-39-232l-32-31l59-87l59-88h-88-88l-45,70c-40,63-48,70-77,70h-33v-70-70h-75-75v280v280h133c89,0,150-5,183-15Zm1119,4c55-14,120-69,135-113c27-84,11-173-41-229l-40-41l51-72c27-40,50-77,50-83c0-7-30-11-80-11h-80l-46,70c-43,63-50,70-80,70h-34v-70-70h-75-75v280v280h136c74,0,155-5,179-11Zm580-6c3-10,43-119,87-243s86-242,94-262l13-38h-78c-78,0-79,0-91,30l-12,30h-88-88l-12-30c-12-30-13-30-92-30-78,0-79,0-72,23c6,18,107,283,186,485l21,52h62c51,0,64-3,70-17Zm695-53v-70h-130-130v-55-55h125h125v-65-65h-125-125v-90-90h-75-75v280v280h205h205v-70Zm495,0v-65l-77-3-78-3v-209-210h-75-75v210v210h-65-65v63c0,35,3,67,7,71c4,3,102,5,217,4l211-3v-65Z" fill="#006005"/><path d="M4754.36846,4931.51059h224.71854l662-5h1198l-15.182995,625-1022,964.98121L4754.36846,5540.51059c0-30.85289,0-45.85289,0-84v-292-233Z" transform="translate(-523.904005-1.51059)" fill="#dfed02"/><path d="M4970,5710v-120h120h120v120v120h-120-120v-120Z" fill="#006005"/><path d="M5340,5778c0-29-3-83-7-120l-6-68h122h121v120v120h-115-115v-52Z" fill="#006005"/><path d="M4970,5360v-120h120h120v114v113l-52,7c-29,3-83,6-120,6h-68v-120Z" fill="#006005"/><path d="M5337,5473c-4-3-7-57-7-120v-113h120h120v120v120h-113c-63,0-117-3-120-7Z" fill="#006005"/><path d="M3218,4434c-12-20-40-116-35-120c3-3,23-4,44-2l40,3-22,64c-12,36-24,61-27,55Z" fill="#006005"/><path d="M5190,4475v-75h54c68,0,106,26,106,74c0,51-34,76-103,76h-57v-75Z" fill="#006005"/><path d="M6310,4475v-75h59c75,0,111,25,111,76c0,55-28,74-105,74h-65v-75Z" fill="#006005"/><path d="M6953,4375l-21-65h50c47,0,49,1,42,23-10,32-43,107-47,107-1,0-12-29-24-65Z" fill="#006005"/><path d="M4345,3721c-3-2-5-69-5-148v-143h90c83,0,93,2,115,25c18,17,25,35,25,64c0,22-4,42-9,46-5,3-7,29-4,58c5,47,3,54-22,77-24,22-36,25-106,25-44,1-82-1-84-4Zm135-76c17-21,3-35-36-35-26,0-34,4-34,18c0,10,3,22,7,25c12,12,50,7,63-8Zm15-120c0-16-8-21-42-23-40-3-43-2-43,23s3,26,43,23c34-2,42-7,42-23Z" fill="#008f18"/><path d="M4650,3621c0-96,3-112,23-142c48-71,156-75,197-6c17,27,20,51,20,145v112h-35-35v-103c0-112-6-127-52-127-39,0-48,25-48,134v96h-35-35v-109Z" fill="#008f18"/><path d="M4980,3580v-150h35h35v150v150h-35-35v-150Z" fill="#008f18"/><path d="M5140,3580v-150h95h95v35v35h-60-60v115v115h-35-35v-150Z" fill="#008f18"/><path d="M5390,3580v-150h73c122,0,173,50,165,162-4,49-9,64-35,89-32,33-82,48-155,49h-48v-150Zm152,40c24-25,29-36,24-58-9-36-41-62-77-62h-29v75c0,74,0,75,26,75c15,0,38-12,56-30Z" fill="#008f18"/><path d="M5710,3580v-150h100h100v35v35h-60c-57,0-60,1-60,25s3,25,55,25c54,0,55,0,55,30s-1,30-55,30c-48,0-55,2-55,20s7,20,61,20h60l-3,38-3,37-97,3-98,3v-151Z" fill="#008f18"/><path d="M6063,3722l-63-3v-144-145h35h35v50c0,43,3,50,19,50c13,0,29-17,48-50c26-46,31-50,65-50h36l-28,52c-28,51-28,52-10,77c29,40,30,97,3,130-23,27-63,37-140,33Zm82-97c0-16-8-21-37-23-35-3-38-1-38,23s3,26,38,23c29-2,37-7,37-23Z" fill="#008f18"/><path d="M6355,3716c-32-14-55-51-55-89c0-35,28-67,76-87c49-21,60-50,19-50-14,0-37,8-51,17-25,16-27,16-45-8-28-36-24-46,26-64c89-34,165,5,165,84c0,43-16,62-73,86-43,18-50,45-11,45c14,0,33-4,43-9c14-8,21-4,35,21c21,35,16,41-44,58-44,12-48,12-85-4Z" fill="#008f18"/></g></svg>
