<svg xmlns="http://www.w3.org/2000/svg" version="1.1" viewBox="-5.0 -10.0 110.0 135.0">
 <path fill="#c79d4b" d="m86.457 70.832v-41.664c0-1.1836-0.66797-2.2656-1.7305-2.7969l-33.332-16.668c-0.87891-0.44141-1.9141-0.44141-2.793 0l-33.332 16.668c-1.0625 0.52734-1.7305 1.6133-1.7305 2.7969v41.668c0 1.1836 0.66797 2.2656 1.7305 2.7969l33.332 16.668c0.027344 0.011719 0.058594 0.007813 0.085938 0.019531 0.40234 0.1875 0.83984 0.30859 1.3125 0.30859s0.91016-0.12109 1.3125-0.30859c0.027344-0.011718 0.058594-0.007812 0.085938-0.019531l33.332-16.668c1.0625-0.52734 1.7305-1.6133 1.7305-2.7969zm-39.582 11.609-27.082-13.543v-34.68l27.082 13.543zm3.125-40.105-26.348-13.172 26.348-13.172 26.348 13.172zm30.207 26.562-27.082 13.543v-34.68l27.082-13.543z"/>
</svg>