<svg xmlns="http://www.w3.org/2000/svg" data-name="Layer 51" viewBox="0 0 50 62.5" x="0px" y="0px"><path fill="#61c008" d="m46.07269287,9.66699219c-.0055542-.08905029-.02264404-.17480469-.05157471-.25921631-.01086426-.03186035-.01922607-.06274414-.03326416-.09332275-.04870605-.10626221-.11004639-.20715332-.19586182-.29296875l-7.22753906-7.22851562c-.08563232-.08563232-.1862793-.14685059-.29223633-.19543457-.03131104-.0144043-.06317139-.02294922-.09588623-.03405762-.08300781-.02819824-.16717529-.04498291-.25469971-.05072021-.02209473-.00146484-.04193115-.01275635-.06420898-.01275635H13.87207031c-1.07910156,0-1.95703125.87792969-1.95703125,1.95703125v2.04296875h-2.04296875c-1.07910156,0-1.95703125.87792969-1.95703125,1.95703125v1.65722656h-2.04296875c-1.07910156,0-1.95703125.87792969-1.95703125,1.95703125v35.47167969c0,1.07910156.87792969,1.95703125,1.95703125,1.95703125h30.25585938c1.07910156,0,1.95703125-.87792969,1.95703125-1.95703125v-1.65722656h2.04296875c1.07910156,0,1.95703125-.87792969,1.95703125-1.95703125v-2.04296875h2.04296875c1.07910156,0,1.95703125-.87792969,1.95703125-1.95703125V9.72851562c0-.0213623-.01092529-.04034424-.01226807-.06152344Zm-3.37738037-.9140625l-3.83789062.04003906v-3.87872314l1.93499756,1.93530273,1.90289307,1.90338135Zm-6.56738281,37.74707031l-30.21289062.04296875-.04296875-35.42871094h2.04296875v31.81445312c0,1.07910156.87792969,1.95703125,1.95703125,1.95703125h26.2255249l.03033447,1.61425781Zm4-3.61425781l-30.21289062.04296875-.04296875-35.42871094h2.04296875v31.42871094c0,1.07910156.87792969,1.95703125,1.95703125,1.95703125h26.22467041l.03118896,2Zm-26.21289062-3.95703125l-.04296875-35.42871094h22.98535156v5.29296875c0,1.06738281.86816406,1.93554688,1.93457031,1.93554688h5.2947998l.0411377,28.15722656-30.21289062.04296875Zm11.27539062-17.83105469c0,.09667969-.078125.17480469-.17480469.17480469h-2c-.09667969,0-.17480469-.078125-.17480469-.17480469s.078125-.17480469.17480469-.17480469h2c.09667969,0,.17480469.078125.17480469.17480469Zm9.96777344,0c0,.09667969-.078125.17480469-.17480469.17480469h-1.96777344c-.09667969,0-.17480469-.078125-.17480469-.17480469s.078125-.17480469.17480469-.17480469h1.96777344c.09667969,0,.17480469.078125.17480469.17480469Zm-4.96777344,0c0,.09667969-.078125.17480469-.17480469.17480469h-2c-.09667969,0-.17480469-.078125-.17480469-.17480469s.078125-.17480469.17480469-.17480469h2c.09667969,0,.17480469.078125.17480469.17480469Z" stroke-width="0"/></svg>