<svg xmlns="http://www.w3.org/2000/svg" version="1.1" viewBox="-5.0 -10.0 110.0 135.0">
 <path fill="#61c008" d="m50 31.238c0.13672 0.003907 0.26562 0.054688 0.35938 0.15234l19.742 19.738c0.14453 0.14453 0.19141 0.35938 0.11328 0.55078-0.074219 0.1875-0.26172 0.3125-0.46484 0.30859h-5.3398v16.273c-0.003906 0.27734-0.23047 0.5-0.51172 0.5h-8.8984c-0.27734 0-0.5-0.22656-0.5-0.5v-10.051c-0.003906-0.27734-0.23047-0.5-0.51172-0.5h-7.9883c-0.27734 0-0.50391 0.22266-0.51172 0.5v10.051c0 0.13281-0.050781 0.25781-0.14453 0.35156s-0.22266 0.14844-0.35547 0.14844h-8.8867c-0.28125 0-0.50781-0.22266-0.51172-0.5v-16.262h-5.3398c-0.20312 0-0.39062-0.12109-0.46484-0.3125-0.078125-0.1875-0.03125-0.40625 0.11328-0.54688l19.742-19.75c0.09375-0.097656 0.22266-0.14844 0.35938-0.15234m0-2.2383c-0.75-0.015625-1.4727 0.27734-2 0.80859l-19.691 19.73c-0.78906 0.78516-1.0273 1.9688-0.60156 3s1.4297 1.7031 2.543 1.6992h3.0898v14c0 1.5273 1.2344 2.7617 2.7617 2.7617h8.8984c1.5195 0 2.75-1.2305 2.75-2.75v-8.25h4.5391v8.3008c0.027344 1.4844 1.2266 2.6797 2.7109 2.6992h8.8984c1.5234 0 2.7578-1.2305 2.7617-2.75v-14h3.0898c1.1133 0 2.1172-0.67188 2.543-1.6992 0.42578-1.0312 0.1875-2.2148-0.60156-3l-19.691-19.75c-0.53125-0.53125-1.2539-0.81641-2-0.80078z"/>
</svg>