<svg xmlns="http://www.w3.org/2000/svg" data-name="Layer 2" viewBox="0 0 100 125" x="0px" y="0px"><path fill="#444" d="M21.939724,37.3769297c0-8.5831945,6.9830125-15.566207,15.566207-15.566207h25.2463608c8.5831945,0,15.5659868,6.9830125,15.5659868,15.566207v25.2463608c0,8.5831945-6.9827923,15.5659868-15.5659868,15.5659868h-25.2463608c-8.5831945,0-15.566207-6.9827923-15.566207-15.5659868v-25.2463608Zm16.9957247,12.6230703c0,6.1721112,5.0214413,11.1935525,11.1935525,11.1935525,6.1721112,0,11.1935525-5.0214413,11.1935525-11.1935525,0-6.1721112-5.0214413-11.1935525-11.1935525-11.1935525-6.1721112,0-11.1935525,5.0214413-11.1935525,11.1935525Zm-3.6280578,0c0-8.172813,6.6487973-14.8216103,14.8216103-14.8216103s14.8216103,6.6487973,14.8216103,14.8216103c0,8.172813-6.6487973,14.8216103-14.8216103,14.8216103s-14.8216103-6.6487973-14.8216103-14.8216103Zm32.8762912-22.2105212c2.148667,0,3.8902294,1.7417405,3.8902294,3.8902888,0,2.1486076-1.7415624,3.8903481-3.8902294,3.8903481-2.1485483,0-3.8903481-1.7417405-3.8903481-3.8903481,0-2.1485483,1.7417998-3.8902888,3.8903481-3.8902888Z" fill-rule="evenodd"/>
</svg>